<svg width="189" height="48" viewBox="0 0 189 48" fill="none" xmlns="http://www.w3.org/2000/svg">
<path opacity="0.7" d="M15.584 42.0137H12.2793L11.5879 44H10.0469L13.2695 35.4688H14.5996L17.8281 44H16.2812L15.584 42.0137ZM12.6953 40.8184H15.168L13.9316 37.2793L12.6953 40.8184ZM20.7227 35.4688L23.1836 42.0078L25.6387 35.4688H27.5547V44H26.0781V41.1875L26.2246 37.4258L23.7051 44H22.6445L20.1309 37.4316L20.2773 41.1875V44H18.8008V35.4688H20.7227ZM30.877 44H29.4004V35.4688H30.877V44ZM35.834 40.7129H34.1816V44H32.6992V35.4688H35.6992C36.6836 35.4688 37.4434 35.6895 37.9785 36.1309C38.5137 36.5723 38.7812 37.2109 38.7812 38.0469C38.7812 38.6172 38.6426 39.0957 38.3652 39.4824C38.0918 39.8652 37.709 40.1602 37.2168 40.3672L39.1328 43.9238V44H37.5449L35.834 40.7129ZM34.1816 39.5234H35.7051C36.2051 39.5234 36.5957 39.3984 36.877 39.1484C37.1582 38.8945 37.2988 38.5488 37.2988 38.1113C37.2988 37.6543 37.168 37.3008 36.9062 37.0508C36.6484 36.8008 36.2617 36.6719 35.7461 36.6641H34.1816V39.5234ZM41.752 44H40.2754V35.4688H41.752V44ZM50.084 41.2227C49.998 42.1328 49.6621 42.8438 49.0762 43.3555C48.4902 43.8633 47.7109 44.1172 46.7383 44.1172C46.0586 44.1172 45.459 43.957 44.9395 43.6367C44.4238 43.3125 44.0254 42.8535 43.7441 42.2598C43.4629 41.666 43.3164 40.9766 43.3047 40.1914V39.3945C43.3047 38.5898 43.4473 37.8809 43.7324 37.2676C44.0176 36.6543 44.4258 36.1816 44.957 35.8496C45.4922 35.5176 46.1094 35.3516 46.8086 35.3516C47.75 35.3516 48.5078 35.6074 49.082 36.1191C49.6562 36.6309 49.9902 37.3535 50.084 38.2871H48.6074C48.5371 37.6738 48.3574 37.2324 48.0684 36.9629C47.7832 36.6895 47.3633 36.5527 46.8086 36.5527C46.1641 36.5527 45.668 36.7891 45.3203 37.2617C44.9766 37.7305 44.8008 38.4199 44.793 39.3301V40.0859C44.793 41.0078 44.957 41.7109 45.2852 42.1953C45.6172 42.6797 46.1016 42.9219 46.7383 42.9219C47.3203 42.9219 47.7578 42.791 48.0508 42.5293C48.3438 42.2676 48.5293 41.832 48.6074 41.2227H50.084ZM56.1895 42.0137H52.8848L52.1934 44H50.6523L53.875 35.4688H55.2051L58.4336 44H56.8867L56.1895 42.0137ZM53.3008 40.8184H55.7734L54.5371 37.2793L53.3008 40.8184ZM66.1738 44H64.6914L60.8887 37.9473V44H59.4062V35.4688H60.8887L64.7031 41.5449V35.4688H66.1738V44Z" fill="black"/>
<path d="M21.2852 18.0273H14.6758L13.293 22H10.2109L16.6562 4.9375H19.3164L25.7734 22H22.6797L21.2852 18.0273ZM15.5078 15.6367H20.4531L17.9805 8.55859L15.5078 15.6367ZM26.9102 15.5664C26.9102 13.6133 27.3633 12.0469 28.2695 10.8672C29.1758 9.67969 30.3906 9.08594 31.9141 9.08594C33.2578 9.08594 34.3438 9.55469 35.1719 10.4922V4H38.0195V22H35.4414L35.3008 20.6875C34.4492 21.7188 33.3125 22.2344 31.8906 22.2344C30.4062 22.2344 29.2031 21.6367 28.2812 20.4414C27.3672 19.2461 26.9102 17.6211 26.9102 15.5664ZM29.7578 15.8125C29.7578 17.1016 30.0039 18.1094 30.4961 18.8359C30.9961 19.5547 31.7031 19.9141 32.6172 19.9141C33.7812 19.9141 34.6328 19.3945 35.1719 18.3555V12.9414C34.6484 11.9258 33.8047 11.418 32.6406 11.418C31.7188 11.418 31.0078 11.7852 30.5078 12.5195C30.0078 13.2461 29.7578 14.3438 29.7578 15.8125ZM46.5742 22.2344C44.7695 22.2344 43.3047 21.668 42.1797 20.5352C41.0625 19.3945 40.5039 17.8789 40.5039 15.9883V15.6367C40.5039 14.3711 40.7461 13.2422 41.2305 12.25C41.7227 11.25 42.4102 10.4727 43.293 9.91797C44.1758 9.36328 45.1602 9.08594 46.2461 9.08594C47.9727 9.08594 49.3047 9.63672 50.2422 10.7383C51.1875 11.8398 51.6602 13.3984 51.6602 15.4141V16.5625H43.375C43.4609 17.6094 43.8086 18.4375 44.418 19.0469C45.0352 19.6562 45.8086 19.9609 46.7383 19.9609C48.043 19.9609 49.1055 19.4336 49.9258 18.3789L51.4609 19.8438C50.9531 20.6016 50.2734 21.1914 49.4219 21.6133C48.5781 22.0273 47.6289 22.2344 46.5742 22.2344ZM46.2344 11.3711C45.4531 11.3711 44.8203 11.6445 44.3359 12.1914C43.8594 12.7383 43.5547 13.5 43.4219 14.4766H48.8477V14.2656C48.7852 13.3125 48.5312 12.5938 48.0859 12.1094C47.6406 11.6172 47.0234 11.3711 46.2344 11.3711ZM56.9102 22H54.0625V4H56.9102V22ZM65.6055 22.2344C63.8008 22.2344 62.3359 21.668 61.2109 20.5352C60.0938 19.3945 59.5352 17.8789 59.5352 15.9883V15.6367C59.5352 14.3711 59.7773 13.2422 60.2617 12.25C60.7539 11.25 61.4414 10.4727 62.3242 9.91797C63.207 9.36328 64.1914 9.08594 65.2773 9.08594C67.0039 9.08594 68.3359 9.63672 69.2734 10.7383C70.2188 11.8398 70.6914 13.3984 70.6914 15.4141V16.5625H62.4062C62.4922 17.6094 62.8398 18.4375 63.4492 19.0469C64.0664 19.6562 64.8398 19.9609 65.7695 19.9609C67.0742 19.9609 68.1367 19.4336 68.957 18.3789L70.4922 19.8438C69.9844 20.6016 69.3047 21.1914 68.4531 21.6133C67.6094 22.0273 66.6602 22.2344 65.6055 22.2344ZM65.2656 11.3711C64.4844 11.3711 63.8516 11.6445 63.3672 12.1914C62.8906 12.7383 62.5859 13.5 62.4531 14.4766H67.8789V14.2656C67.8164 13.3125 67.5625 12.5938 67.1172 12.1094C66.6719 11.6172 66.0547 11.3711 65.2656 11.3711ZM88.7148 18.0273H82.1055L80.7227 22H77.6406L84.0859 4.9375H86.7461L93.2031 22H90.1094L88.7148 18.0273ZM82.9375 15.6367H87.8828L85.4102 8.55859L82.9375 15.6367ZM96.6484 19C97.1797 19 97.5898 19.1523 97.8789 19.457C98.168 19.7539 98.3125 20.1289 98.3125 20.582C98.3125 21.0273 98.168 21.3984 97.8789 21.6953C97.5898 21.9844 97.1797 22.1289 96.6484 22.1289C96.1406 22.1289 95.7383 21.9844 95.4414 21.6953C95.1445 21.4062 94.9961 21.0352 94.9961 20.582C94.9961 20.1289 95.1406 19.7539 95.4297 19.457C95.7188 19.1523 96.125 19 96.6484 19ZM111.672 4.9375L116.594 18.0156L121.504 4.9375H125.336V22H122.383V16.375L122.676 8.85156L117.637 22H115.516L110.488 8.86328L110.781 16.375V22H107.828V4.9375H111.672ZM133.785 19.9609C134.496 19.9609 135.086 19.7539 135.555 19.3398C136.023 18.9258 136.273 18.4141 136.305 17.8047H138.988C138.957 18.5938 138.711 19.332 138.25 20.0195C137.789 20.6992 137.164 21.2383 136.375 21.6367C135.586 22.0352 134.734 22.2344 133.82 22.2344C132.047 22.2344 130.641 21.6602 129.602 20.5117C128.562 19.3633 128.043 17.7773 128.043 15.7539V15.4609C128.043 13.5312 128.559 11.9883 129.59 10.832C130.621 9.66797 132.027 9.08594 133.809 9.08594C135.316 9.08594 136.543 9.52734 137.488 10.4102C138.441 11.2852 138.941 12.4375 138.988 13.8672H136.305C136.273 13.1406 136.023 12.543 135.555 12.0742C135.094 11.6055 134.504 11.3711 133.785 11.3711C132.863 11.3711 132.152 11.707 131.652 12.3789C131.152 13.043 130.898 14.0547 130.891 15.4141V15.8711C130.891 17.2461 131.137 18.2734 131.629 18.9531C132.129 19.625 132.848 19.9609 133.785 19.9609ZM154.949 22H151.984L144.379 9.89453V22H141.414V4.9375H144.379L152.008 17.0898V4.9375H154.949V22ZM163.762 22.2344C161.957 22.2344 160.492 21.668 159.367 20.5352C158.25 19.3945 157.691 17.8789 157.691 15.9883V15.6367C157.691 14.3711 157.934 13.2422 158.418 12.25C158.91 11.25 159.598 10.4727 160.48 9.91797C161.363 9.36328 162.348 9.08594 163.434 9.08594C165.16 9.08594 166.492 9.63672 167.43 10.7383C168.375 11.8398 168.848 13.3984 168.848 15.4141V16.5625H160.562C160.648 17.6094 160.996 18.4375 161.605 19.0469C162.223 19.6562 162.996 19.9609 163.926 19.9609C165.23 19.9609 166.293 19.4336 167.113 18.3789L168.648 19.8438C168.141 20.6016 167.461 21.1914 166.609 21.6133C165.766 22.0273 164.816 22.2344 163.762 22.2344ZM163.422 11.3711C162.641 11.3711 162.008 11.6445 161.523 12.1914C161.047 12.7383 160.742 13.5 160.609 14.4766H166.035V14.2656C165.973 13.3125 165.719 12.5938 165.273 12.1094C164.828 11.6172 164.211 11.3711 163.422 11.3711ZM174.098 22H171.25V9.32031H174.098V22ZM171.074 6.02734C171.074 5.58984 171.211 5.22656 171.484 4.9375C171.766 4.64844 172.164 4.50391 172.68 4.50391C173.195 4.50391 173.594 4.64844 173.875 4.9375C174.156 5.22656 174.297 5.58984 174.297 6.02734C174.297 6.45703 174.156 6.81641 173.875 7.10547C173.594 7.38672 173.195 7.52734 172.68 7.52734C172.164 7.52734 171.766 7.38672 171.484 7.10547C171.211 6.81641 171.074 6.45703 171.074 6.02734ZM180.238 22H177.391V4H180.238V22ZM186.379 22H183.531V4H186.379V22Z" fill="black"/>
</svg>
